<?xml version="1.0" encoding="UTF-8"?>
<svg version="1.1" xmlns="http://www.w3.org/2000/svg" width="97" height="89">
<path d="M0 0 C1.24652344 -0.02578125 2.49304688 -0.0515625 3.77734375 -0.078125 C7.0625 0.25 7.0625 0.25 8.8028717 1.52229309 C10.0625 3.25 10.0625 3.25 10.05955505 5.1089325 C8.38807884 11.43863308 6.30258989 17.5665854 4.03515625 23.70703125 C3.64557236 24.77241623 3.25598846 25.83780121 2.854599 26.93547058 C2.03458829 29.17279313 1.21166911 31.40905162 0.38598633 33.64428711 C-0.87634908 37.06615702 -2.12521622 40.49273991 -3.37304688 43.91992188 C-4.17367411 46.09925426 -4.97507939 48.278301 -5.77734375 50.45703125 C-6.14931381 51.4799678 -6.52128387 52.50290436 -6.90452576 53.55683899 C-7.25821732 54.50850449 -7.61190887 55.46016998 -7.97631836 56.44067383 C-8.28339218 57.27512527 -8.590466 58.10957672 -8.90684509 58.96931458 C-9.9850797 61.35528678 -11.29310049 63.22120109 -12.9375 65.25 C-10.54681266 66.35636395 -10.54681266 66.35636395 -7.9375 67.25 C-7.2775 66.92 -6.6175 66.59 -5.9375 66.25 C-0.97615547 65.8755589 2.17572241 66.01101867 6.0625 69.25 C8.95580787 73.39707461 9.48992849 76.50214097 8.64453125 81.3515625 C7.74385262 84.28934648 6.24473418 86.13194918 4.0625 88.25 C-0.41004497 89.74084832 -4.46495503 89.74084832 -8.9375 88.25 C-9.2675 88.58 -9.5975 88.91 -9.9375 89.25 C-11.89271119 88.98488662 -13.84771976 88.71801153 -15.80078125 88.4375 C-18.62109803 88.19001334 -21.170063 88.72286914 -23.9375 89.25 C-24.9275 88.755 -24.9275 88.755 -25.9375 88.25 C-25.9375 87.59 -25.9375 86.93 -25.9375 86.25 C-26.5975 86.25 -27.2575 86.25 -27.9375 86.25 C-27.9375 86.91 -27.9375 87.57 -27.9375 88.25 C-34.25954079 89.22262166 -39.61914715 89.16903314 -45.9375 88.25 C-46.9275 88.25 -47.9175 88.25 -48.9375 88.25 C-49.2675 88.58 -49.5975 88.91 -49.9375 89.25 C-52.57325543 89.35024126 -55.17704245 89.38875021 -57.8125 89.375 C-58.91271484 89.38080078 -58.91271484 89.38080078 -60.03515625 89.38671875 C-63.26183238 89.38084138 -65.85593421 89.2771886 -68.9375 88.25 C-69.2675 88.58 -69.5975 88.91 -69.9375 89.25 C-72.02027955 89.07045004 -74.06018871 88.73072034 -76.125 88.40625 C-77.0221875 88.32890625 -77.0221875 88.32890625 -77.9375 88.25 C-78.4325 88.745 -78.4325 88.745 -78.9375 89.25 C-82.4375 88.9375 -82.4375 88.9375 -85.9375 88.25 C-87.56959118 84.98581765 -87.03845518 81.39474787 -87 77.8125 C-86.99548828 77.03583984 -86.99097656 76.25917969 -86.98632812 75.45898438 C-86.97384939 73.38929654 -86.95596064 71.31964313 -86.9375 69.25 C-86.89257541 66.32046733 -86.89257541 66.32046733 -87.16796875 63.6953125 C-86.83837612 58.76818205 -85.0934523 54.67240298 -83.25 50.125 C-82.91033203 49.23167969 -82.57066406 48.33835938 -82.22070312 47.41796875 C-79.89191382 41.59381904 -77.71271339 38.1376067 -71.9375 35.25 C-69.98866878 34.91761917 -68.02735147 34.65608372 -66.0625 34.4375 C-65.01320313 34.30730469 -63.96390625 34.17710938 -62.8828125 34.04296875 C-59.14177733 34.30593276 -58.4163275 35.57929673 -55.9375 38.25 C-54.6175 38.25 -53.2975 38.25 -51.9375 38.25 C-51.57398438 37.15300781 -51.21046875 36.05601563 -50.8359375 34.92578125 C-50.32911373 33.47100933 -49.82124551 32.01660099 -49.3125 30.5625 C-49.07660156 29.84126953 -48.84070312 29.12003906 -48.59765625 28.37695312 C-46.7059606 23.06565381 -44.6812577 20.36458839 -39.9375 17.25 C-37.3828125 16.54296875 -37.3828125 16.54296875 -35.0625 16.4375 C-33.89074219 16.36595703 -33.89074219 16.36595703 -32.6953125 16.29296875 C-32.11523438 16.27878906 -31.53515625 16.26460937 -30.9375 16.25 C-30.669375 15.486875 -30.40125 14.72375 -30.125 13.9375 C-28.94321309 11.26292963 -28.17965961 10.05604161 -25.9375 8.25 C-23.78125 7.73828125 -23.78125 7.73828125 -21.4375 7.5625 C-20.6640625 7.49675781 -19.890625 7.43101562 -19.09375 7.36328125 C-17.37695285 7.2730872 -15.65666474 7.25 -13.9375 7.25 C-12.22609531 5.28814584 -10.55876675 3.28697617 -8.9375 1.25 C-5.98361864 -0.22694068 -3.28588118 0.04069203 0 0 Z M-24.9375 28.25 C-25.66621014 30.11273834 -26.39455748 31.97561922 -27.12133789 33.83911133 C-27.75391717 35.45953166 -28.38855361 37.07915028 -29.02514648 38.69799805 C-30.59913493 42.72032571 -32.12931736 46.74487572 -33.52734375 50.83203125 C-33.77661621 51.54552734 -34.02588867 52.25902344 -34.28271484 52.99414062 C-34.74778394 54.33521122 -35.19829258 55.68145504 -35.63134766 57.03320312 C-37.39459184 62.05298417 -39.76118627 64.20899486 -43.9375 67.25 C-43.6075 67.91 -43.2775 68.57 -42.9375 69.25 C-42.2775 69.25 -41.6175 69.25 -40.9375 69.25 C-40.9375 68.59 -40.9375 67.93 -40.9375 67.25 C-38.2975 66.92 -35.6575 66.59 -32.9375 66.25 C-32.82035645 65.23325195 -32.70321289 64.21650391 -32.58251953 63.16894531 C-31.95632301 59.36436297 -30.97132675 56.14856337 -29.6171875 52.546875 C-29.16472656 51.3196875 -28.71226563 50.0925 -28.24609375 48.828125 C-27.52672919 46.90257815 -26.80429784 44.97822957 -26.07958984 43.0546875 C-25.3760905 41.17995424 -24.6839626 39.3009661 -23.9921875 37.421875 C-23.57437012 36.3090918 -23.15655273 35.19630859 -22.72607422 34.04980469 C-21.64131102 31.20260359 -21.64131102 31.20260359 -22.9375 28.25 C-23.5975 28.25 -24.2575 28.25 -24.9375 28.25 Z M-62.9375 59.25 C-65.28037418 61.92247634 -65.28037418 61.92247634 -65.9375 65.25 C-66.9275 65.58 -67.9175 65.91 -68.9375 66.25 C-68.6075 66.91 -68.2775 67.57 -67.9375 68.25 C-65.2975 67.59 -62.6575 66.93 -59.9375 66.25 C-59.9375 64.27 -59.9375 62.29 -59.9375 60.25 C-60.9275 59.92 -61.9175 59.59 -62.9375 59.25 Z M-2.9375 77.25 C-1.9375 79.25 -1.9375 79.25 -1.9375 79.25 Z " fill="#FBF8FA" transform="translate(86.9375,-0.25)"/>
<path d="M0 0 C1.49080078 0.02707031 1.49080078 0.02707031 3.01171875 0.0546875 C3.77097656 0.07789062 4.53023437 0.10109375 5.3125 0.125 C2.86128506 7.58557701 0.30677684 15.00794918 -2.33886719 22.40161133 C-2.82371705 23.76570142 -3.30250734 25.1319596 -3.77539062 26.50024414 C-4.46813421 28.50190096 -5.18106781 30.49533809 -5.8984375 32.48828125 C-6.31399902 33.66688721 -6.72956055 34.84549316 -7.15771484 36.05981445 C-8.87225725 39.49519268 -10.48253821 41.05563235 -13.6875 43.125 C-16.36328125 43.515625 -16.36328125 43.515625 -19 43.375 C-19.88300781 43.33890625 -20.76601563 43.3028125 -21.67578125 43.265625 C-22.33964844 43.21921875 -23.00351562 43.1728125 -23.6875 43.125 C-23.09946203 40.10080475 -22.46071882 37.10741547 -21.6875 34.125 C-22.574375 34.3725 -23.46125 34.62 -24.375 34.875 C-27.6875 35.125 -27.6875 35.125 -30.5625 33.1875 C-31.26375 32.506875 -31.965 31.82625 -32.6875 31.125 C-32.92984375 31.73988281 -33.1721875 32.35476562 -33.421875 32.98828125 C-33.92460938 34.20064453 -33.92460938 34.20064453 -34.4375 35.4375 C-34.76234375 36.23800781 -35.0871875 37.03851563 -35.421875 37.86328125 C-36.89449315 40.49490443 -38.05584542 41.65879245 -40.6875 43.125 C-43.265625 43.41796875 -43.265625 43.41796875 -45.9375 43.3125 C-47.27554688 43.27189453 -47.27554688 43.27189453 -48.640625 43.23046875 C-49.31609375 43.19566406 -49.9915625 43.16085938 -50.6875 43.125 C-46.20138889 23.13425926 -46.20138889 23.13425926 -38.6875 18.125 C-36.20703125 17.9296875 -36.20703125 17.9296875 -33.5 18 C-32.59894531 18.01804687 -31.69789062 18.03609375 -30.76953125 18.0546875 C-30.08246094 18.07789062 -29.39539063 18.10109375 -28.6875 18.125 C-29.0175 20.105 -29.3475 22.085 -29.6875 24.125 C-29.0275 23.465 -28.3675 22.805 -27.6875 22.125 C-24.79130178 21.75369254 -23.30861229 21.65916579 -20.9375 23.4375 C-19.6875 25.125 -19.6875 25.125 -18.6875 28.125 C-18.49115967 27.55056152 -18.29481934 26.97612305 -18.0925293 26.38427734 C-17.1910064 23.75468104 -16.28306033 21.12734558 -15.375 18.5 C-15.06626953 17.59636719 -14.75753906 16.69273438 -14.43945312 15.76171875 C-8.90200104 -0.20945885 -8.90200104 -0.20945885 0 0 Z " fill="#27499A" transform="translate(54.6875,20.875)"/>
<path d="M0 0 C0.72864258 0.02876221 1.45728516 0.05752441 2.20800781 0.0871582 C-0.01730536 7.80461815 -2.5745957 15.38307139 -5.22949219 22.9621582 C-5.99972335 25.16764306 -6.76925815 27.37337124 -7.53808594 29.5793457 C-7.91376709 30.65619629 -8.28944824 31.73304687 -8.67651367 32.8425293 C-10.10737158 37.00451258 -11.47466652 41.18621736 -12.82714844 45.37426758 C-16.89988775 56.82575525 -16.89988775 56.82575525 -21.79199219 60.0871582 C-24.27246094 60.2824707 -24.27246094 60.2824707 -26.97949219 60.2121582 C-27.88054688 60.19411133 -28.78160156 60.17606445 -29.70996094 60.1574707 C-30.39703125 60.13426758 -31.08410156 60.11106445 -31.79199219 60.0871582 C-31.14726898 56.54993606 -30.25417705 53.21666985 -29.12011719 49.8059082 C-28.78753906 48.80430664 -28.45496094 47.80270508 -28.11230469 46.77075195 C-27.75910156 45.72016602 -27.40589844 44.66958008 -27.04199219 43.5871582 C-26.50445312 41.9803418 -26.50445312 41.9803418 -25.95605469 40.34106445 C-23.42886262 32.84130381 -20.77132311 25.42089585 -17.79199219 18.0871582 C-18.22511719 18.58344727 -18.65824219 19.07973633 -19.10449219 19.59106445 C-20.79199219 21.0871582 -20.79199219 21.0871582 -23.79199219 21.0246582 C-26.79199219 20.0871582 -26.79199219 20.0871582 -28.72949219 18.3996582 C-30.17749439 15.24812399 -29.72191818 13.37766557 -28.79199219 10.0871582 C-26.79199219 8.0871582 -26.79199219 8.0871582 -23.41699219 7.7121582 C-19.79199219 8.0871582 -19.79199219 8.0871582 -17.35449219 10.0871582 C-16.58105469 11.0771582 -16.58105469 11.0771582 -15.79199219 12.0871582 C-15.42847656 11.16483398 -15.42847656 11.16483398 -15.05761719 10.22387695 C-14.72246094 9.41563477 -14.38730469 8.60739258 -14.04199219 7.7746582 C-13.71714844 6.97415039 -13.39230469 6.17364258 -13.05761719 5.34887695 C-9.85393145 -0.37622812 -6.01012494 -0.23724177 0 0 Z " fill="#27499A" transform="translate(89.7919921875,3.912841796875)"/>
<path d="M0 0 C0.90105469 0.01804688 1.80210938 0.03609375 2.73046875 0.0546875 C3.41753906 0.07789063 4.10460937 0.10109375 4.8125 0.125 C0.31979335 18.02775527 0.31979335 18.02775527 -4.3125 23.75 C-8.56233915 25.78253177 -12.5578458 25.44862631 -17.1875 25.125 C-11.48228447 -0.29824115 -11.48228447 -0.29824115 0 0 Z " fill="#284B9B" transform="translate(21.1875,38.875)"/>
<path d="M0 0 C1.9375 1.0625 1.9375 1.0625 3 3 C3.504958 6.9675271 3.61854451 9.10654682 1.3125 12.4375 C-1 14 -1 14 -3.5 14.5625 C-6 14 -6 14 -8.3125 11.875 C-10.27372261 8.53365777 -10.57977821 6.80997107 -10 3 C-7.72054654 -1.02256493 -4.21158603 -0.45124136 0 0 Z M-4 6 C-3 8 -3 8 -3 8 Z " fill="#FDF4F4" transform="translate(88,71)"/>
<path d="M0 0 C3.5625 0.25 3.5625 0.25 6.5625 2.25 C7.07270607 6.18587537 7.12535485 8.38406947 4.9375 11.75 C2.5625 13.25 2.5625 13.25 -0.5 13.25 C-3.4375 12.25 -3.4375 12.25 -5.375 10.5625 C-6.82300221 7.41096578 -6.367426 5.54050737 -5.4375 2.25 C-3.4375 0.25 -3.4375 0.25 0 0 Z " fill="#EE2E30" transform="translate(66.4375,11.75)"/>
<path d="M0 0 C1.8125 1.0625 1.8125 1.0625 3 3 C3.4375 6.5 3.4375 6.5 3 10 C1.375 12 1.375 12 -1 13 C-4.125 12.875 -4.125 12.875 -7 12 C-9.31361802 8.52957297 -9.51020728 7.08165827 -9 3 C-6.30254095 0.00282328 -3.95012118 -0.60771095 0 0 Z " fill="#EE2E30" transform="translate(32,43)"/>
<path d="M0 0 C1 1 1 1 1.1875 4.4375 C1 8 1 8 -1 10 C-3.5 10.3125 -3.5 10.3125 -6 10 C-8 7 -8 7 -7.75 3.375 C-7.5025 2.26125 -7.255 1.1475 -7 0 C-4.31633121 -1.3418344 -2.84719317 -0.73004953 0 0 Z " fill="#FDF6F6" transform="translate(28,73)"/>
<path d="M0 0 C0.99 0 1.98 0 3 0 C3.83764268 1.95649397 4.66999059 3.91525556 5.5 5.875 C5.9640625 6.96554688 6.428125 8.05609375 6.90625 9.1796875 C8 12 8 12 8 14 C7.34 14 6.68 14 6 14 C5.67 12.68 5.34 11.36 5 10 C2.69 10 0.38 10 -2 10 C-2.33 11.32 -2.66 12.64 -3 14 C-3.66 14 -4.32 14 -5 14 C-3.45730076 9.27934033 -1.92205381 4.58335908 0 0 Z " fill="#F66668" transform="translate(38,71)"/>
<path d="M0 0 C2.64819502 1.04534014 3.84683949 1.52461498 5.375 3.9375 C5.879958 7.9050271 5.99354451 10.04404682 3.6875 13.375 C1.375 14.9375 1.375 14.9375 -1.125 15.5 C-3.625 14.9375 -3.625 14.9375 -5.9375 12.8125 C-7.92606368 9.4245767 -8.36365679 7.79492989 -7.625 3.9375 C-5.12171555 1.14812589 -3.80877374 -0.09068509 0 0 Z M-4.4375 3 C-6.31855537 6.06909034 -5.37764699 8.55058855 -4.625 11.9375 C-3.57189723 13.20753323 -3.57189723 13.20753323 -1.1875 13.125 C1.54234675 13.20589983 1.54234675 13.20589983 3.375 10.9375 C3.70833333 7.4375 3.70833333 7.4375 3.375 3.9375 C2.715 3.2775 2.055 2.6175 1.375 1.9375 C-2.40002919 1.60035367 -2.40002919 1.60035367 -4.4375 3 Z " fill="#F24A4C" transform="translate(25.625,70.0625)"/>
<path d="M0 0 C0.66 0 1.32 0 2 0 C2 1.65 2 3.3 2 5 C4.31 5 6.62 5 9 5 C9 3.35 9 1.7 9 0 C9.66 0 10.32 0 11 0 C11 4.62 11 9.24 11 14 C10.34 14 9.68 14 9 14 C9 11.69 9 9.38 9 7 C6.69 7 4.38 7 2 7 C2 9.31 2 11.62 2 14 C1.34 14 0.68 14 0 14 C0 9.38 0 4.76 0 0 Z " fill="#EF4B4D" transform="translate(4,71)"/>
<path d="M0 0 C0.66 0 1.32 0 2 0 C2 1.65 2 3.3 2 5 C4.31 5 6.62 5 9 5 C9 3.35 9 1.7 9 0 C9.66 0 10.32 0 11 0 C11 4.62 11 9.24 11 14 C10.34 14 9.68 14 9 14 C9 11.69 9 9.38 9 7 C6.69 7 4.38 7 2 7 C2 8.98 2 10.96 2 13 C1.34 13 0.68 13 0 13 C0 8.71 0 4.42 0 0 Z " fill="#EE3F42" transform="translate(64,71)"/>
<path d="M0 0 C1.9375 1.0625 1.9375 1.0625 3 3 C3.504958 6.9675271 3.61854451 9.10654682 1.3125 12.4375 C-1 14 -1 14 -3.5 14.5625 C-6 14 -6 14 -8.3125 11.875 C-10.27372261 8.53365777 -10.57977821 6.80997107 -10 3 C-7.72054654 -1.02256493 -4.21158603 -0.45124136 0 0 Z M-8 3 C-8.41666667 6.5 -8.41666667 6.5 -8 10 C-6.17296773 12.2491908 -6.17296773 12.2491908 -3.5 12.25 C-0.82703227 12.2491908 -0.82703227 12.2491908 1 10 C1.33333333 6.5 1.33333333 6.5 1 3 C0.34 2.34 -0.32 1.68 -1 1 C-5.04622502 0.63019987 -5.04622502 0.63019987 -8 3 Z " fill="#F33B3E" transform="translate(88,71)"/>
<path d="M0 0 C3.63 0 7.26 0 11 0 C11 0.66 11 1.32 11 2 C9.68 2 8.36 2 7 2 C7 5.96 7 9.92 7 14 C6.34 14 5.68 14 5 14 C5 9.71 5 5.42 5 1 C3.35 1 1.7 1 0 1 C0 0.67 0 0.34 0 0 Z " fill="#F15255" transform="translate(49,71)"/>
<path d="M0 0 C0.66 0 1.32 0 2 0 C2.83796731 4.65537393 3.0161692 8.37078475 2 13 C1.34 13 0.68 13 0 13 C0 8.71 0 4.42 0 0 Z " fill="#ED3336" transform="translate(64,71)"/>
<path d="M0 0 C-3 2 -3 2 -5 2 C-5 4.64 -5 7.28 -5 10 C-5.99 10.495 -5.99 10.495 -7 11 C-8.39935013 8.20129973 -8.25265405 6.09501208 -8 3 C-5.87141064 -0.36093057 -3.79035926 -0.30732643 0 0 Z " fill="#EF3D3F" transform="translate(26,71)"/>
<path d="M0 0 C0.33 0.66 0.66 1.32 1 2 C3.31 2 5.62 2 8 2 C8 2.33 8 2.66 8 3 C5.69 3 3.38 3 1 3 C0.67 4.32 0.34 5.64 0 7 C-0.66 7 -1.32 7 -2 7 C-1.34 4.69 -0.68 2.38 0 0 Z " fill="#F17677" transform="translate(35,78)"/>
</svg>
